<svg xmlns="http://www.w3.org/2000/svg" width="82" height="82" viewBox="0 0 82 82">
    <g fill="none" fill-rule="evenodd" stroke="#59B189" stroke-linecap="round" stroke-linejoin="round" stroke-width="2">
        <path fill="#EFF8F3" d="M80.633 41c0 21.889-17.744 39.633-39.633 39.633C19.111 80.633 1.367 62.89 1.367 41 1.367 19.111 19.11 1.367 41 1.367 62.889 1.367 80.633 19.11 80.633 41z"/>
        <path d="M28.7 28.7a2.734 2.734 0 0 1-5.467 0 2.734 2.734 0 0 1 5.467 0zM58.767 28.7a2.734 2.734 0 0 1-5.467 0 2.734 2.734 0 0 1 5.467 0zM23.233 58.767L58.767 53.3"/>
    </g>
</svg>
