<svg xmlns="http://www.w3.org/2000/svg" width="46" height="46" viewBox="0 0 46 46">
    <g fill="none" fill-rule="evenodd">
        <path fill="#DEF0E8" d="M45 23c0 12.15-9.85 22-22 22S1 35.15 1 23 10.85 1 23 1s22 9.85 22 22z"/>
        <path fill="#FFF" d="M35.986 40.417l-6.57-1.783-.782-3.045c5.386-.732 8.116-2.302 8.116-2.302s-3.667-2.674-3.667-12.476c0-9.804-3.055-10.695-4.583-10.695h-.917c-1.336-1.3-2.062-1.783-4.583-1.783-2.52 0-10.083 2.674-10.083 12.478 0 9.802-3.667 12.476-3.667 12.476s2.695 1.575 8.116 2.306l-.783 3.04-6.57 1.784S16.508 45 23 45s12.986-4.583 12.986-4.583z"/>
        <path stroke="#59B189" stroke-linecap="round" stroke-linejoin="round" stroke-width="2" d="M45 23c0 12.15-9.85 22-22 22S1 35.15 1 23 10.85 1 23 1s22 9.85 22 22z"/>
        <path stroke="#59B189" stroke-linecap="round" stroke-linejoin="round" stroke-width="2" d="M35.986 40.417l-6.57-1.783-.782-3.045c5.386-.732 8.116-2.302 8.116-2.302s-3.667-2.674-3.667-12.476c0-9.804-3.055-10.695-4.583-10.695h-.917c-1.336-1.3-2.062-1.783-4.583-1.783-2.52 0-10.083 2.674-10.083 12.478 0 9.802-3.667 12.476-3.667 12.476s2.695 1.575 8.116 2.306l-.783 3.04-6.57 1.784"/>
    </g>
</svg>
