<svg xmlns="http://www.w3.org/2000/svg" width="154" height="145" viewBox="0 0 154 145">
    <g fill="none" fill-rule="evenodd" stroke="#59B189" stroke-linecap="round" stroke-linejoin="round" stroke-width="3">
        <path fill="#DEF0E8" d="M130.43 64.928c-11.342 11.998-28.147 11.452-38.4 1.265s-10.484-26.679 1.268-38.157c10.34-10.1 30.97-20.507 57.776-20.507-13.616 13.524-10.72 46.896-20.645 57.4zM44.431 30.388a13.052 13.052 0 0 0 18.545 0c5.118-5.155 5.118-13.505 0-18.66C57.853 6.578 46.867 2 33.481 2c6.801 6.843 5.832 23.233 10.95 28.388z"/>
        <path d="M63.111 30.569c9.804 9.773 21.684 63.588 21.684 63.588s9.809-35.216 35.724-61.05"/>
        <path fill="#DEF0E8" d="M2 127.333h20.988s9.009-34.526 10.493-51.105C28.245 71.398 2 71.118 2 71.118v56.215z"/>
        <path d="M105.401 113.63l25.888-5.17c8.28-2.062 16.9 2.725 20.711 10.339l-36.243 15.507c-27.198 11.134-28.462 10.06-41.421 5.17l-49.188-15.508"/>
        <path d="M33.481 82.176l61.905 15.517c8.693 2.178 10.318 6.538 10.318 15.517l-7.738 2.586c-2.802.703-4.906.569-7.738 0l-30.953-7.758"/>
    </g>
</svg>
