<svg xmlns="http://www.w3.org/2000/svg" width="89" height="90" viewBox="0 0 89 90">
    <g fill="none" fill-rule="evenodd" stroke="#59B189" stroke-linecap="round" stroke-linejoin="round" stroke-width="2">
        <path fill="#DEF0E8" d="M70 53.98c0-19.053-15.444-34.5-34.5-34.5C16.444 19.48 1 34.927 1 53.98s15.444 34.5 34.5 34.5c19.056 0 34.5-15.447 34.5-34.5z"/>
        <path fill="#EFF8F3" d="M88 23.98l-6-1.5-3 3 1.5 6z"/>
        <path fill="#EFF8F3" d="M82 22.48l-3 3-6-3c-5.502-2.751-10.644-8.508-11.514-14.601L61 4.48l3.387.483C70.48 5.836 76.249 10.972 79 16.48c1.641 3.288 3 6.027 3 6z"/>
        <path d="M82 19.48l3-3h-6M76 25.48l-3 3v-6M54.974 5.21a53.346 53.346 0 0 0-2.814-1.032"/>
        <path stroke-dasharray="2,3" d="M46.633 2.663A52.739 52.739 0 0 0 35.5 1.48c-11.1 0-21.396 3.443-29.874 9.323"/>
        <path d="M3.314 12.499a56.491 56.491 0 0 0-2.313 1.905"/>
        <path stroke-dasharray="2,3" d="M75.074 88.48c8.052-9.225 12.927-21.294 12.927-34.5 0-6.867-1.32-13.428-3.72-19.44"/>
        <path fill="#FFF" d="M43 50.98c0-4.143 3.357-7.5 7.5-7.5s7.5 3.357 7.5 7.5-3.357 7.5-7.5 7.5a7.499 7.499 0 0 1-7.5-7.5zM40 38.98a1.5 1.5 0 1 1-3.001-.001A1.5 1.5 0 0 1 40 38.98z"/>
    </g>
</svg>
