<svg xmlns="http://www.w3.org/2000/svg" width="84" height="84" viewBox="0 0 84 84">
    <g fill="none" fill-rule="evenodd" stroke="#59B189" stroke-linecap="round" stroke-linejoin="round" stroke-width="2">
        <path fill="#EFF8F3" d="M12.582 77.02h33.62a5.602 5.602 0 0 1 5.604 5.604H6.979a5.602 5.602 0 0 1 5.603-5.603z"/>
        <path d="M6.98 46.203a2.803 2.803 0 0 1-5.604 0 2.803 2.803 0 0 1 5.603 0zM27.992 77.02L5.578 49.005M5.578 43.4l40.624-15.408"/>
        <path fill="#EFF8F3" d="M79.823 14.462l-.617-.602c-5.62-5.486-14.607-5.432-20.16.12l-8.644 8.644c-5.552 5.553-5.606 14.54-.12 20.16l.602.617 28.939-28.939z"/>
        <path fill="#EFF8F3" d="M63.88 10.487l-5.916-5.752a11.455 11.455 0 0 0-8.105-3.36h-.589c-3.04 0-5.956 1.208-8.108 3.36a11.47 11.47 0 0 0-3.364 8.114v.588c0 3.04 1.207 5.956 3.356 8.108l5.474 5.397L63.88 10.487z"/>
        <path d="M71.816 23.79a8.205 8.205 0 0 1 0 11.604 8.205 8.205 0 0 1-11.605 0M79.823 29.392h2.801M65.814 43.4v2.803M77.02 40.6l2.803 2.8"/>
    </g>
</svg>
