<svg xmlns="http://www.w3.org/2000/svg" width="60" height="60" viewBox="0 0 60 60">
    <g fill="none" fill-rule="evenodd">
        <path fill="#FAEBF0" d="M21 8.5L4.304 49.044c-1.292-.614-2.404-.746-2.946-.186-.858.892.078 4.436 2.642 6.998 2.564 2.564 5.472 3.81 6.498 2.786.556-.558.424-1.678-.206-2.988L51 39s-10.176-4.07-17.814-11.836C25.546 19.398 21 8.5 21 8.5z"/>
        <path fill="#F5D6E0" d="M46.712 12.788C56.324 22.4 61.564 33.686 57.72 37.53c-3.846 3.846-15.32-1.206-24.932-10.818C23.176 17.1 18.502 6.19 22.346 2.346 26.19-1.5 37.1 3.176 46.712 12.788z"/>
        <path stroke="#CD3264" stroke-linecap="round" stroke-linejoin="round" stroke-width="2" d="M46.712 12.788C56.324 22.4 61.564 33.686 57.72 37.53c-3.846 3.846-15.32-1.206-24.932-10.818C23.176 17.1 18.502 6.19 22.346 2.346 26.19-1.5 37.1 3.176 46.712 12.788z"/>
        <path stroke="#CD3264" stroke-linecap="round" stroke-linejoin="round" stroke-width="2" d="M21 8.5L4.304 49.044c-1.292-.614-2.404-.746-2.946-.186-.858.892.078 4.436 2.642 6.998 2.564 2.564 5.472 3.81 6.498 2.786.556-.558.424-1.678-.206-2.988L51 39"/>
        <path stroke="#CD3264" stroke-linecap="round" stroke-linejoin="round" stroke-width="2" d="M22.25 51l2.536 4.62A2.495 2.495 0 0 0 28 56.798L40.488 52a2.495 2.495 0 0 0 1.248-3.408L39.75 43.5"/>
    </g>
</svg>
