<?xml version="1.0" encoding="UTF-8"?>
<svg width="111px" height="80px" viewBox="0 0 111 80" version="1.1" xmlns="http://www.w3.org/2000/svg" xmlns:xlink="http://www.w3.org/1999/xlink">
    <!-- Generator: Sketch 52.3 (67297) - http://www.bohemiancoding.com/sketch -->
    <title>Group 987</title>
    <desc>Created with Sketch.</desc>
    <g id="Hantera-kort" stroke="none" stroke-width="1" fill="none" fill-rule="evenodd" stroke-linecap="round" stroke-linejoin="round">
        <g id="M-Hantera-kort-Aktivera" transform="translate(-132.000000, -529.000000)" stroke="#59B189" stroke-width="2">
            <g id="Group-987" transform="translate(133.000000, 530.000000)">
                <path d="M23,26.1333333 L23,9.33333333 C23,3.3824 28.2609565,0 34.2173913,0 L97.7826087,0 C103.739043,0 109,5.24906667 109,11.2 L109,44.8 C109,50.7509333 101.869478,56 95.9130435,56 L52.9130435,56" id="Stroke-979"></path>
                <path d="M79,33 C79,30.417 80.616,28.184 83,26.9695 C81.82,26.3675 80.464,26 79,26 C74.58,26 71,29.1325 71,33 C71,36.864 74.58,40 79,40 C80.464,40 81.82,39.6325 83,39.0305 C80.616,37.816 79,35.583 79,33 L79,33 Z" id="Stroke-981"></path>
                <path d="M93,33 C93,36.864 89.864,40 86,40 C82.1325,40 79,36.864 79,33 C79,29.1325 82.1325,26 86,26 C89.864,26 93,29.1325 93,33 L93,33 Z" id="Stroke-983"></path>
                <path d="M44,56 C44,68.1476667 34.1476667,78 22,78 C9.84866667,78 0,68.1476667 0,56 C0,43.8486667 9.84866667,34 22,34 C34.1476667,34 44,43.8486667 44,56 L44,56 Z" id="Stroke-985" fill="#EFF8F3"></path>
                <polyline id="Stroke-972" points="12 56 19.4285714 63 38 49"></polyline>
                <path d="M38,12 L42,12" id="Stroke-973"></path>
                <path d="M53,12 L57,12" id="Stroke-974"></path>
                <path d="M67,12 L71,12" id="Stroke-975"></path>
                <path d="M83,12 L87,12" id="Stroke-976"></path>
                <path d="M42,26 L60,26" id="Stroke-977"></path>
                <path d="M60,42 L56,42" id="Stroke-978"></path>
            </g>
        </g>
    </g>
</svg>