<?xml version="1.0" encoding="UTF-8"?>
<svg width="89px" height="80px" viewBox="0 0 89 80" version="1.1" xmlns="http://www.w3.org/2000/svg" xmlns:xlink="http://www.w3.org/1999/xlink">
    <!-- Generator: Sketch 52.3 (67297) - http://www.bohemiancoding.com/sketch -->
    <title>Group 2</title>
    <desc>Created with Sketch.</desc>
    <g id="Hantera-kort" stroke="none" stroke-width="1" fill="none" fill-rule="evenodd" stroke-linecap="round" stroke-linejoin="round">
        <g id="DT-Hantera-kort-Extrakort" transform="translate(-595.000000, -1024.000000)" stroke="#59B189" stroke-width="2">
            <g id="Group-3" transform="translate(140.000000, 974.000000)">
                <g id="Group-2" transform="translate(456.000000, 50.000000)">
                    <g id="Group-433" transform="translate(0.000000, 29.000000)">
                        <path d="M69.4482759,50 L6.55172414,50 C2.93255172,50 0,47.0552632 0,43.4210526 L0,6.57894737 C0,2.94473684 2.93255172,0 6.55172414,0 L69.4482759,0 C73.0674483,0 76,2.94473684 76,6.57894737 L76,43.4210526 C76,47.0552632 73.0674483,50 69.4482759,50 L69.4482759,50 Z" id="Stroke-417" fill="#EFF8F3"></path>
                        <path d="M10.8571429,32 L23.6883117,32" id="Stroke-419"></path>
                        <path d="M10.8571429,40 L39.4805195,40" id="Stroke-421"></path>
                        <path d="M10.8571429,24 L15.7922078,24" id="Stroke-423"></path>
                        <path d="M23.6883117,24 L28.6233766,24" id="Stroke-425"></path>
                        <path d="M37.5064935,24 L42.4415584,24" id="Stroke-427"></path>
                        <path d="M66.1298701,34.5 C66.1298701,37.53875 63.6978701,40 60.7012987,40 C57.7047273,40 55.2727273,37.53875 55.2727273,34.5 C55.2727273,31.464 57.7047273,29 60.7012987,29 C63.6978701,29 66.1298701,31.464 66.1298701,34.5 L66.1298701,34.5 Z" id="Stroke-429"></path>
                        <path d="M58.1671662,39.35925 C57.4212454,39.769 56.5687646,40 55.6656677,40 C52.7246087,40 50.3376623,37.53875 50.3376623,34.5 C50.3376623,31.464 52.7246087,29 55.6656677,29 C56.5980686,29 57.4718615,29.2475 58.2337662,29.67925" id="Stroke-431"></path>
                    </g>
                    <g id="Group-433-Copy" transform="translate(46.000000, 32.000000) rotate(-11.000000) translate(-46.000000, -32.000000) translate(8.000000, 7.000000)">
                        <path d="M0,10.4999437 L0,6.57894737 C0,2.94473684 2.93255172,0 6.55172414,0 L69.4482759,0 C73.0674483,0 76,2.94473684 76,6.57894737 L76,43.4210526 C76,47.0552632 73.0674483,50 69.4482759,50 L67.7658007,50" id="Stroke-417"></path>
                    </g>
                </g>
            </g>
        </g>
    </g>
</svg>