<svg xmlns="http://www.w3.org/2000/svg" width="46" height="47" viewBox="0 0 46 47">
    <g fill="none" fill-rule="evenodd">
        <path fill="#EFF8F3" d="M45 23c0 12.15-9.85 22-22 22S1 35.15 1 23 10.85 1 23 1s22 9.85 22 22z"/>
        <path fill="#FFF" d="M10 42c0-7.731 5.82-14 13-14s13 6.269 13 14c-4.333 3.271-8.667 4.907-13 4.907S14.333 45.27 10 42z"/>
        <path stroke="#59B189" stroke-linecap="round" stroke-linejoin="round" stroke-width="2" d="M10 40c0-6.627 5.82-12 13-12s13 5.373 13 12"/>
        <path stroke="#59B189" stroke-linecap="round" stroke-linejoin="round" stroke-width="2" d="M45 23c0 12.15-9.85 22-22 22S1 35.15 1 23 10.85 1 23 1s22 9.85 22 22z"/>
        <path fill="#FFF" stroke="#59B189" stroke-linecap="round" stroke-linejoin="round" stroke-width="2" d="M30 17a7 7 0 1 1-14 0 7 7 0 0 1 14 0z"/>
    </g>
</svg>
